<svg viewBox="0 0 306 188" fill="none" xmlns="http://www.w3.org/2000/svg">
<path d="M305.147 1.1707C300.673 3.72446 297.093 7.61895 294.984 12.3434L244.684 116.792L195.023 13.2372C189.655 2.31989 176.424 -2.21304 165.495 3.14987C161.085 5.32057 157.506 8.83199 155.397 13.2372L105.672 116.792L56.011 13.2372C52.304 5.44825 44.3787 0.596103 35.7504 0.787635H0.853516L85.8587 174.89C91.2275 185.808 104.458 190.341 115.387 184.978C120.116 182.679 123.823 178.785 125.933 173.933L175.146 73.0591L224.807 174.827C230.176 185.744 243.342 190.277 254.271 184.978C259.001 182.679 262.772 178.721 264.881 173.869L305.083 91.8293L305.147 1.1707Z" fill="currentColor"/>
</svg>
